<?xml version="1.0" encoding="UTF-8"?>
<svg version="1.1" xmlns="http://www.w3.org/2000/svg" width="57" height="41">
<path d="M0 0 C2.22759192 1.26486254 2.78950957 2.61476169 3.69921875 4.96484375 C2.463694 6.95307897 1.21028141 8.93020743 -0.05078125 10.90234375 C-0.746875 12.00449219 -1.44296875 13.10664063 -2.16015625 14.2421875 C-4.30078125 16.96484375 -4.30078125 16.96484375 -6.56640625 17.84375 C-7.13875 17.88371094 -7.71109375 17.92367188 -8.30078125 17.96484375 C-9.30078125 15.96484375 -9.30078125 15.96484375 -9.30078125 12.96484375 C-13.08112748 16.44220401 -13.08112748 16.44220401 -15.30078125 20.96484375 C-1.94562214 20.58107481 10.42701226 18.49998843 22.69921875 12.96484375 C24.67921875 15.60484375 26.65921875 18.24484375 28.69921875 20.96484375 C16.42001765 27.98153009 -1.66355338 32.6996866 -15.7109375 29.3984375 C-19.41474108 28.11454189 -21.0908428 27.27975143 -23.30078125 23.96484375 C-23.9059578 19.99757524 -24.12279991 17.51023883 -22.2265625 13.9453125 C-18.60483496 9.32008363 -14.11552489 6.34377195 -9.11328125 3.40234375 C-8.20425049 2.86383789 -8.20425049 2.86383789 -7.27685547 2.31445312 C-4.79533045 0.94184034 -2.87003875 -0.04385458 0 0 Z " fill="#5150E9" transform="translate(23.30078125,11.03515625)"/>
<path d="M0 0 C0.8051001 -0.01393799 1.6102002 -0.02787598 2.43969727 -0.04223633 C7.36303991 -0.00264391 10.82176237 0.61690194 15.0625 3.375 C17.41870437 6.90930656 17.55241613 8.21071287 17.0625 12.375 C13.32373193 20.01509128 5.40502236 25.23532944 -2.140625 28.796875 C-4.65942939 29.60727293 -6.4901065 29.29277256 -8.9375 28.375 C-9.66796875 26.23828125 -9.66796875 26.23828125 -9.9375 23.375 C-8.42578125 20.48046875 -8.42578125 20.48046875 -6.25 17.5625 C-5.54488281 16.58667969 -4.83976562 15.61085938 -4.11328125 14.60546875 C-3.39527344 13.86941406 -2.67726562 13.13335937 -1.9375 12.375 C-0.6175 12.375 0.7025 12.375 2.0625 12.375 C1.7325 14.025 1.4025 15.675 1.0625 17.375 C2.2350131 16.42382866 3.40037015 15.46382991 4.5625 14.5 C5.2121875 13.96632813 5.861875 13.43265625 6.53125 12.8828125 C7.0365625 12.38523437 7.541875 11.88765625 8.0625 11.375 C8.0625 10.715 8.0625 10.055 8.0625 9.375 C-5.09715605 8.46219149 -17.650548 11.90701745 -29.9375 16.375 C-34.9375 10.625 -34.9375 10.625 -34.9375 8.375 C-23.37881065 3.10590377 -12.71185039 0.14255598 0 0 Z " fill="#6249E9" transform="translate(34.9375,-0.375)"/>
</svg>
